<?xml version="1.0" encoding="UTF-8"?>
<svg width="24px" height="24px" viewBox="0 0 24 24" version="1.1" xmlns="http://www.w3.org/2000/svg" xmlns:xlink="http://www.w3.org/1999/xlink">
    <!-- Generator: Sketch 52.3 (67297) - http://www.bohemiancoding.com/sketch -->
    <title>logo/hangout</title>
    <desc>Created with Sketch.</desc>
    <defs>
        <path d="M22.2809091,10.3636364 C22.2809091,4.64045455 17.6322727,0 11.9090909,0 C6.18590909,0 1.54545455,4.64045455 1.54545455,10.3636364 C1.54545455,15.7854545 6.48727273,20.1818182 11.9090909,20.1818182 L11.9090909,24 C18.2063636,20.8063636 22.2809091,15.6668182 22.2809091,10.3636364 Z" id="path-1"></path>
        <linearGradient x1="29.1403509%" y1="0.574166667%" x2="77.6149123%" y2="67.0183333%" id="linearGradient-3">
            <stop stop-color="#263238" stop-opacity="0.25" offset="0%"></stop>
            <stop stop-color="#263238" stop-opacity="0" offset="100%"></stop>
        </linearGradient>
        <path d="M22.2809091,10.3636364 C22.2809091,4.64045455 17.6322727,0 11.9090909,0 C6.18590909,0 1.54545455,4.64045455 1.54545455,10.3636364 C1.54545455,15.7854545 6.48727273,20.1818182 11.9090909,20.1818182 L11.9090909,24 C18.2063636,20.8063636 22.2809091,15.6668182 22.2809091,10.3636364 Z" id="path-4"></path>
        <path d="M22.2809091,10.3636364 C22.2809091,4.64045455 17.6322727,0 11.9090909,0 C6.18590909,0 1.54545455,4.64045455 1.54545455,10.3636364 C1.54545455,15.7854545 6.48727273,20.1818182 11.9090909,20.1818182 L11.9090909,24 C18.2063636,20.8063636 22.2809091,15.6668182 22.2809091,10.3636364 Z" id="path-6"></path>
        <path d="M22.2809091,10.3636364 C22.2809091,4.64045455 17.6322727,0 11.9090909,0 C6.18590909,0 1.54545455,4.64045455 1.54545455,10.3636364 C1.54545455,15.7854545 6.48727273,20.1818182 11.9090909,20.1818182 L11.9090909,24 C18.2063636,20.8063636 22.2809091,15.6668182 22.2809091,10.3636364 Z" id="path-8"></path>
    </defs>
    <g id="logo/hangout" stroke="none" stroke-width="1" fill="none" fill-rule="evenodd">
        <path d="M22.2809091,10.3636364 C22.2809091,4.64045455 17.6322727,0 11.9090909,0 C6.18590909,0 1.54545455,4.64045455 1.54545455,10.3636364 C1.54545455,15.7854545 6.48727273,20.1818182 11.9090909,20.1818182 L11.9090909,24 C18.2063636,20.8063636 22.2809091,15.6668182 22.2809091,10.3636364 Z" id="Path" fill="#0F9D58"></path>
        <mask id="mask-2" fill="white">
            <use xlink:href="#path-1"></use>
        </mask>
        <g id="a"></g>
        <path d="M16,21 C16,21 12.9090909,18 6.72727273,12 L11.0909091,7.63636364 L14.0909091,10.6363636 L17.0909091,7.63636364 L22,13 C20.6666667,16.3333333 18.6666667,19 16,21 Z" id="Path" fill="url(#linearGradient-3)" mask="url(#mask-2)"></path>
        <path d="M12.7272727,7.63636364 L12.7272727,12 L15.1818182,12 L15.1818182,14.4545455 C16.2522727,14.4545455 17.0909091,13.0909091 17.0909091,11.7272727 L17.0909091,7.63636364 L12.7272727,7.63636364 Z" id="Path" fill="#EEEEEE" mask="url(#mask-2)"></path>
        <mask id="mask-5" fill="white">
            <use xlink:href="#path-4"></use>
        </mask>
        <g id="a"></g>
        <path d="M6.72727273,7.63636364 L6.72727273,12 L9.18181818,12 L9.18181818,14.4545455 C10.2522727,14.4545455 11.0909091,13.0909091 11.0909091,11.7272727 L11.0909091,7.63636364 L6.72727273,7.63636364 Z" id="Path" fill="#EEEEEE" mask="url(#mask-5)"></path>
        <path d="M12.7272727,7.63636364 L17.0909091,7.63636364 L17.0909091,8.13636364 L12.7272727,8.13636364 L12.7272727,7.63636364 Z M6.72727273,7.63636364 L11.0909091,7.63636364 L11.0909091,8.13636364 L6.72727273,8.13636364 L6.72727273,7.63636364 Z" id="Shape" fill-opacity="0.4" fill="#FFFFFF" fill-rule="nonzero" mask="url(#mask-5)"></path>
        <path d="M9.18181818,12 L6.72727273,12 L6.72727273,12.1363636 L9.18181818,12.1363636 L9.18181818,12 Z M9.18181818,14.4545455 L9.31136364,14.5840909 C10.3190909,14.4804545 11.0909091,13.1713636 11.0909091,11.8636364 L11.0909091,11.7272727 C11.0909091,13.0909091 10.2522727,14.4545455 9.18181818,14.4545455 Z M15.1818182,12 L12.7272727,12 L12.7272727,12.1363636 L15.1818182,12.1363636 L15.1818182,12 Z M15.1818182,14.4545455 L15.1818182,14.5909091 C16.2522727,14.5909091 17.0909091,13.2272727 17.0909091,11.8636364 L17.0909091,11.7272727 C17.0909091,13.0909091 16.2522727,14.4545455 15.1818182,14.4545455 Z" id="Shape" fill-opacity="0.2" fill="#263238" fill-rule="nonzero" mask="url(#mask-5)"></path>
        <mask id="mask-7" fill="white">
            <use xlink:href="#path-6"></use>
        </mask>
        <g id="a"></g>
        <path d="M11.9090909,0.136363636 C17.6322727,0.136363636 22.2727273,4.77681818 22.2727273,10.5 L22.2781818,10.5 C22.2781818,10.455 22.2809091,10.4086364 22.2809091,10.3636364 L22.2727273,10.3636364 C22.2727273,4.64045455 17.6322727,0 11.9090909,0 C6.18590909,0 1.54545455,4.64045455 1.54545455,10.3636364 C1.54545455,10.3854545 1.54681818,10.4059091 1.54681818,10.4277273 C1.58636364,4.73727273 6.20909091,0.136363636 11.9090909,0.136363636 Z" id="Path" fill-opacity="0.2" fill="#FFFFFF" mask="url(#mask-7)"></path>
        <mask id="mask-9" fill="white">
            <use xlink:href="#path-8"></use>
        </mask>
        <g id="a"></g>
        <path d="M22.2727273,10.3636364 C22.2031818,15.6177273 18.1518182,20.6972727 11.9090909,23.8636364 L11.9090909,24 C18.2063636,20.8063636 22.2727273,15.6668182 22.2727273,10.3636364 Z M11.9090909,20.1818182 L11.9090909,20.0454545 C6.50772727,20.0454545 1.58636364,15.6845455 1.54681818,10.2913636 C1.54681818,10.3159091 1.54545455,10.3390909 1.54545455,10.3636364 C1.54545455,15.7854545 6.48727273,20.1818182 11.9090909,20.1818182 Z" id="Shape" fill-opacity="0.2" fill="#263238" fill-rule="nonzero" mask="url(#mask-9)"></path>
    </g>
</svg>