<?xml version="1.0" encoding="UTF-8"?>
<svg width="24px" height="24px" viewBox="0 0 24 24" version="1.1" xmlns="http://www.w3.org/2000/svg" xmlns:xlink="http://www.w3.org/1999/xlink">
    <!-- Generator: Sketch 52.3 (67297) - http://www.bohemiancoding.com/sketch -->
    <title>logo/slack</title>
    <desc>Created with Sketch.</desc>
    <g id="logo/slack" stroke="none" stroke-width="1" fill="none" fill-rule="evenodd">
        <path d="M17.1197157,8.06411311 L18.4598962,12.1887179 L20.4342439,11.5469964 C21.4634963,11.2125087 22.5691712,11.7759197 22.903573,12.8051722 C23.2379747,13.8346826 22.6748216,14.9401856 21.6453971,15.2745873 L21.6453971,15.2746733 L19.6710321,15.9161688 L20.3330637,17.9536697 C20.6649725,18.9751854 20.0309846,20.0799147 18.9908146,20.3793289 C17.9936269,20.6662783 16.9548323,20.1259057 16.6068482,19.1642212 L15.9446827,17.1269057 L11.8190677,18.4673689 L12.4810699,20.504837 C12.8129787,21.5265246 12.1789908,22.6312539 11.1389068,22.9304962 C10.141719,23.2177034 9.10283853,22.6772449 8.75494035,21.7156464 L8.09269646,19.6781129 L6.05385105,20.3405589 C5.03233536,20.6724677 3.92760608,20.0383938 3.62819187,18.9983098 C3.3412425,18.0011221 3.8816151,16.9623276 4.84329952,16.6145154 L6.88162616,15.9519988 L5.54068333,11.8263043 L3.50268376,12.4884792 C2.48099615,12.8203879 1.37626687,12.1863141 1.07702458,11.146316 C0.789817318,10.1491283 1.33027588,9.11024779 2.29187433,8.76260751 L4.32963781,8.10026641 L3.68750735,6.12461612 C3.3528477,5.0951917 3.91625878,3.98960278 4.94576915,3.65511506 C5.97502164,3.32071331 7.08061056,3.88403842 7.41518424,4.91337687 L8.05700965,6.88874622 L12.1813837,5.54818707 L11.5395012,3.5732769 C11.2049275,2.54402441 11.7682526,1.43834953 12.797677,1.10394778 C13.8269295,0.769374096 14.9326044,1.3326992 15.2670061,2.36212362 L15.908598,4.33671809 L17.8829046,3.69500257 C18.9123291,3.36060082 20.0180039,3.92392593 20.3524057,4.95317842 C20.6868074,5.98268879 20.1234823,7.08827772 19.0941439,7.42267947 L19.0941439,7.4225935 L17.1197157,8.06411311 Z M13.3926919,9.2750758 L9.2678211,10.6153046 L10.6082336,14.7407409 L14.7333542,13.3999545 L13.3926919,9.2750758 Z" id="Combined-Shape" stroke="#FFFFFF" stroke-width="4" fill="#FFFFFF"></path>
        <g id="Group" transform="translate(1.000000, 1.000000)">
            <path d="M14.2625313,1.36107812 C13.9282344,0.331976562 12.8229063,-0.231171875 11.7939766,0.103296875 C10.764875,0.43759375 10.2017266,1.54292187 10.5361953,2.57185156 L15.6019531,18.1579062 C15.9498281,19.1192891 16.9882969,19.6594922 17.9851719,19.3726328 C19.0250156,19.0733125 19.6588047,17.9689297 19.327,16.9477344 L14.2625313,1.36107812" id="Path" fill="#DFA22F"></path>
            <path d="M6.41317188,3.91153125 C6.07870313,2.88251563 4.97346094,2.31936719 3.94453125,2.65366406 C2.91534375,2.98804688 2.35210938,4.09328906 2.68666406,5.12239063 L7.75250781,20.7085313 C8.10029688,21.6698281 9.13885156,22.2101172 10.1357266,21.923 C11.1754844,21.6238516 11.8092734,20.5194688 11.4774688,19.4981016 L6.41317188,3.91153125" id="Path" fill="#3CB187"></path>
            <path d="M20.6389219,14.2694922 C21.6680234,13.9351953 22.231,12.8300391 21.8967031,11.8008516 C21.5624063,10.7719219 20.4570781,10.2086875 19.4281484,10.5430703 L3.84209375,15.609 C2.88071094,15.9567031 2.34050781,16.9951719 2.62736719,17.9920469 C2.9266875,19.0318047 4.03107031,19.6656797 5.05226563,19.333875 L20.6389219,14.2695781" id="Path" fill="#CE1E5B"></path>
            <polyline id="Path" fill="#392538" points="7.09053125 18.6716406 10.8156641 17.4612969 9.60514844 13.7357344 5.87975781 14.9465938 7.09053125 18.6717266"></polyline>
            <path d="M14.9399766,16.1211016 C16.3483203,15.6636562 17.6573203,15.2382656 18.6651953,14.9107578 L17.4545078,11.1845078 L13.7291172,12.3953672 L14.9399766,16.1211016" id="Path" fill="#BB242A"></path>
            <path d="M18.0884688,6.42004688 C19.1174844,6.08575 19.6806328,4.98050781 19.3463359,3.95132031 C19.0120391,2.92239063 17.9067109,2.35924219 16.8776094,2.69353906 L1.29146875,7.75955469 C0.330171875,8.10708594 -0.210117187,9.14564063 0.077,10.1425156 C0.376148438,11.1821875 1.48053125,11.8160625 2.50189844,11.4842578 L18.0884688,6.41996094" id="Path" fill="#72C5CD"></path>
            <path d="M4.53939063,10.8223672 C5.55388281,10.4927109 6.86185156,10.0676641 8.265125,9.61185156 C7.80767969,8.20333594 7.38228906,6.89433594 7.05478125,5.88628906 L3.32853125,7.09732031 L4.53939063,10.8223672" id="Path" fill="#248C73"></path>
            <path d="M12.38875,8.272 L16.1146563,7.0613125 C15.7111169,5.81921232 15.3075258,4.57712899 14.9038828,3.3350625 L11.1778906,4.54609375 L12.38875,8.272" id="Path" fill="#62803A"></path>
        </g>
    </g>
</svg>